<?xml version="1.0" encoding="iso-8859-1"?>
<!-- Generator: Adobe Illustrator 19.0.0, SVG Export Plug-In . SVG Version: 6.00 Build 0)  -->
<svg xmlns="http://www.w3.org/2000/svg" xmlns:xlink="http://www.w3.org/1999/xlink" version="1.1" id="Layer_1" x="0px" y="0px" viewBox="0 0 512 512" style="enable-background:new 0 0 512 512;" xml:space="preserve" width="512px" height="512px">
<g>
	<g>
		<path d="M486.013,53.08H388.7c-11.43,0-21.152,7.42-24.622,17.693H34.834C15.627,70.773,0,86.4,0,105.607V362.16    c0,19.207,15.627,34.834,34.834,34.834h115.559v45.339H123.3c-4.581,0-8.294,3.713-8.294,8.294c0,4.58,3.712,8.294,8.294,8.294    h203.473c4.581,0,8.294-3.713,8.294-8.294c0-4.58-3.712-8.294-8.294-8.294H299.68v-45.339H415.24    c19.207,0,34.834-15.627,34.834-34.834v-9.4h35.94c14.329,0,25.987-11.658,25.987-25.987V79.067    C512,64.738,500.342,53.08,486.013,53.08z M16.587,105.607c0-10.061,8.185-18.246,18.246-18.246h327.879v18.799H43.68    c-4.581,0-8.294,3.713-8.294,8.294V309.08c0,4.58,3.712,8.294,8.294,8.294h319.032v9.4c0,3.314,0.63,6.482,1.766,9.4H16.587    V105.607z M208.785,170.516c-3.24-3.239-8.491-3.239-11.73,0l-35.387,35.387c-3.239,3.239-3.239,8.491,0,11.728l35.387,35.387    c1.62,1.619,3.743,2.43,5.865,2.43c2.122,0,4.245-0.809,5.865-2.43c3.239-3.239,3.239-8.491,0-11.728l-21.23-21.229h175.156    v80.726H51.974V122.747h310.739v80.726H187.557l21.229-21.229C212.024,179.005,212.024,173.754,208.785,170.516z M283.093,442.333    H166.981v-45.339h116.112V442.333z M433.486,362.16c0,10.061-8.185,18.246-18.246,18.246H34.834    c-10.061,0-18.246-8.185-18.246-18.246v-9.4H388.7h44.786V362.16z M495.413,326.773c0,5.183-4.217,9.4-9.4,9.4H388.7    c-5.183,0-9.4-4.217-9.4-9.4v-18.246h116.112V326.773z M495.413,291.94H379.3v-71.879h51.303l-21.229,21.229    c-3.239,3.239-3.239,8.491,0,11.728c1.62,1.619,3.743,2.43,5.865,2.43s4.245-0.809,5.865-2.43l35.387-35.387    c3.239-3.239,3.239-8.491,0-11.728l-35.387-35.387c-3.24-3.239-8.491-3.239-11.73,0c-3.239,3.239-3.239,8.491,0,11.728    l21.228,21.229H379.3v-89.572h116.112V291.94z M495.413,97.313H379.3V79.067c0-5.183,4.216-9.4,9.4-9.4h97.313    c5.183,0,9.4,4.217,9.4,9.4V97.313z" fill="#212121"/>
	</g>
</g>
<g>
</g>
<g>
</g>
<g>
</g>
<g>
</g>
<g>
</g>
<g>
</g>
<g>
</g>
<g>
</g>
<g>
</g>
<g>
</g>
<g>
</g>
<g>
</g>
<g>
</g>
<g>
</g>
<g>
</g>
</svg>
