<?xml version="1.0" ?><!DOCTYPE svg  PUBLIC '-//W3C//DTD SVG 1.1//EN'  'http://www.w3.org/Graphics/SVG/1.1/DTD/svg11.dtd'><svg style="enable-background:new 0 0 512 512;" version="1.1" viewBox="0 0 512 512" xml:space="preserve" xmlns="http://www.w3.org/2000/svg" xmlns:xlink="http://www.w3.org/1999/xlink"><g><g id="_x32_0-Search"/><g id="_x31_9-Web_Page"/><g id="_x31_8-Wifi"/><g id="_x31_7-Hotspot"/><g id="_x31_6-Satelite"/><g id="_x31_5-Receiver"/><g id="_x31_4-Receiver"/><g id="_x31_3-Receiver"/><g id="_x31_2-Ethernet"/><g id="_x31_1-Code"><g><path d="M398.905,96.168h-285.81c-22.684,0-41.139,18.455-41.139,41.139v177.387      c0,22.684,18.455,41.139,41.139,41.139h105.759l-9.859,49.865h-31.964c-7.18,0-13,5.82-13,13s5.82,13,13,13      c8.213,0,149.678,0,157.938,0c7.18,0,13-5.82,13-13s-5.82-13-13-13h-31.964l-9.859-49.865h105.759      c22.684,0,41.139-18.455,41.139-41.139V137.307C440.043,114.623,421.589,96.168,398.905,96.168z M276.501,405.697h-41.003      l9.859-49.865h21.284L276.501,405.697z M414.043,314.693c0,8.348-6.792,15.139-15.139,15.139c-10.026,0-268.566,0-285.809,0      c-8.348,0-15.139-6.791-15.139-15.139V137.307c0-8.348,6.791-15.139,15.139-15.139h285.81c8.348,0,15.139,6.791,15.139,15.139      V314.693z" style="fill:#2175AA;"/><path d="M204.207,162.6c-5.077-5.077-13.308-5.077-18.385,0l-53.21,53.21      c-5.073,5.074-5.076,13.309,0,18.385l53.21,53.21c5.077,5.077,13.308,5.077,18.385,0c5.077-5.077,5.077-13.308,0-18.385      l-44.018-44.018l44.018-44.018C209.283,175.908,209.283,167.677,204.207,162.6z" style="fill:#2175AA;"/><path d="M326.178,162.6c-5.077-5.077-13.308-5.077-18.385,0c-5.077,5.077-5.077,13.308,0,18.385      l44.018,44.018l-44.018,44.018c-5.077,5.077-5.077,13.308,0,18.385c5.086,5.086,13.317,5.068,18.385,0l53.21-53.21      c5.073-5.074,5.076-13.309,0-18.385L326.178,162.6z" style="fill:#2175AA;"/><path d="M292.717,160.451c-6.263-3.508-14.186-1.275-17.695,4.989l-60.729,108.415      c-3.509,6.264-1.275,14.186,4.989,17.695c6.269,3.511,14.189,1.271,17.695-4.989l60.729-108.415      C301.215,171.882,298.981,163.959,292.717,160.451z" style="fill:#2175AA;"/></g></g><g id="_x31_0-Homegroup"/><g id="_x30_9-Sharing_Option"/><g id="_x30_8-Data"/><g id="_x30_7-Connectivity"/><g id="_x30_6-Computer"/><g id="_x30_5-Laptop"/><g id="_x30_4-Mobile"/><g id="_x30_3-Network"/><g id="_x30_2-Click"/><g id="_x30_1-Website"/></g></svg>