<svg data-name="Layer 1" xmlns="http://www.w3.org/2000/svg" viewBox="0 0 247.74 363.35"><title>development</title><path d="M228.24 148.65h19.5V99.1h-19.5a105.58 105.58 0 0 0-13-31.51L229 53.8l-35-35-13.84 13.74a105.67 105.67 0 0 0-31.51-13V0H99.1v19.5a105.58 105.58 0 0 0-31.51 13L53.8 18.76l-35 35 13.75 13.82a105.67 105.67 0 0 0-13 31.51H0v49.55h19.5a105.58 105.58 0 0 0 13 31.51l-13.74 13.78 35 35 12.65-12.65a21 21 0 0 0-.26 2.51 20.61 20.61 0 0 0 9.67 17.42 20.51 20.51 0 0 0 19.23 28h57.85a20.51 20.51 0 0 0 19.23-28 20.6 20.6 0 0 0 9.67-17.42 19.64 19.64 0 0 0-.22-2.22L193.94 229l35-35-13.74-13.85a105.46 105.46 0 0 0 13.04-31.5zm-75.34 99.1H95.1a4.13 4.13 0 0 1 0-8.26h57.81a4.13 4.13 0 1 1 0 8.26zm8.26-24.75H86.84a4.13 4.13 0 0 1 0-8.26h74.32a4.13 4.13 0 1 1 0 8.26zm-28.9-75.84a24.77 24.77 0 1 0-16.52 0v51.07H99.23v-21.96l-4.12-2.39a57.81 57.81 0 1 1 57.79 0l-4.12 2.39v21.93h-16.52zm-8.26-15a8.26 8.26 0 1 1 8.26-8.26 8.26 8.26 0 0 1-8.26 8.23zm89.34 6.84a89.51 89.51 0 0 1-15.48 37.42l-4 5.68 11.81 11.83-11.68 11.68-11.83-11.83-5.69 4.05a76.754 76.754 0 0 1-4.93 3.21 20.35 20.35 0 0 0-6.21-2.46v-13a74.33 74.33 0 1 0-82.58 0v13a20.34 20.34 0 0 0-6.34 2.54c-1.8-1.09-3.5-2.18-5.05-3.29l-5.69-4.05-11.87 11.84-11.68-11.68 11.81-11.83-4-5.68A89.51 89.51 0 0 1 34.41 139l-1.17-6.89H16.52v-16.5h16.72l1.16-6.89a89.51 89.51 0 0 1 15.48-37.41l4-5.68L42.12 53.8l11.67-11.68 11.83 11.81 5.68-4a89.51 89.51 0 0 1 37.42-15.48l6.9-1.17V16.52h16.52v16.72L139 34.4a89.51 89.51 0 0 1 37.42 15.48l5.68 4 11.83-11.81 11.68 11.68-11.8 11.87 4 5.68a89.51 89.51 0 0 1 15.48 37.42l1.17 6.9h16.72v16.52H214.5zm-97.73 141.77h16.52v16.52h-16.52zm0 33.04h16.52v16.52h-16.52zm0 33.03h16.52v16.52h-16.52z" fill="#40589c"/></svg>