<svg fill="#40589c" viewBox="0 0 74 74" xmlns="http://www.w3.org/2000/svg"><path class="st0" d="M65.4 14.7H49.7C48.8 4.3 41.2 4.3 37 4.3s-11.8 0-12.7 10.4H8.6c-4.3 0-7.8 3.4-7.8 7.6v17.1c0 .9.6 1.7 1.6 1.9.4.1.8.2 1.3.3v21c0 3.9 3.3 7.1 7.3 7.1h52c4 0 7.3-3.2 7.3-7.1v-21c.4-.1.8-.2 1.3-.3.9-.2 1.6-1 1.6-1.9V22.3c-.1-4.2-3.5-7.6-7.8-7.6zM37 8.3c5.4 0 8.2.7 8.7 6.4H28.3c.5-5.7 3.3-6.4 8.7-6.4zm-32.1 14c0-2 1.7-3.6 3.8-3.6h56.7c2.1 0 3.8 1.6 3.8 3.6v15.5c-8.1 1.8-16.4 2.9-24.6 3.3v-2.6c0-2.5-2-4.5-4.6-4.5h-6c-2.5 0-4.6 2-4.6 4.5v2.6c-8.2-.4-16.4-1.5-24.6-3.3V22.3zm35.7 16.2v9.6c0 .3-.3.5-.6.5h-6c-.3 0-.6-.2-.6-.5v-9.6c0-.3.3-.5.6-.5h6c.3 0 .6.2.6.5zm25.7 24.1c0 1.7-1.5 3.1-3.3 3.1H11c-1.8 0-3.3-1.4-3.3-3.1V42.4c7.2 1.4 14.5 2.3 21.8 2.7v3c0 2.5 2 4.5 4.6 4.5h6c2.5 0 4.6-2 4.6-4.5v-3c7.2-.4 14.5-1.3 21.8-2.7v20.2z"/></svg>