<svg xmlns="http://www.w3.org/2000/svg" viewBox="0 0 512 512" width="512" height="512"><path d="M486.013 53.08H388.7c-11.43 0-21.152 7.42-24.622 17.693H34.834C15.627 70.773 0 86.4 0 105.607V362.16c0 19.207 15.627 34.834 34.834 34.834h115.559v45.339H123.3a8.294 8.294 0 0 0-8.294 8.294 8.294 8.294 0 0 0 8.294 8.294h203.473a8.294 8.294 0 0 0 8.294-8.294 8.294 8.294 0 0 0-8.294-8.294H299.68v-45.339h115.56c19.207 0 34.834-15.627 34.834-34.834v-9.4h35.94c14.329 0 25.987-11.658 25.987-25.987V79.067C512 64.738 500.342 53.08 486.013 53.08zM16.587 105.607c0-10.061 8.185-18.246 18.246-18.246h327.879v18.799H43.68a8.294 8.294 0 0 0-8.294 8.294V309.08a8.294 8.294 0 0 0 8.294 8.294h319.032v9.4c0 3.314.63 6.482 1.766 9.4H16.587V105.607zm192.198 64.909a8.295 8.295 0 0 0-11.73 0l-35.387 35.387a8.292 8.292 0 0 0 0 11.728l35.387 35.387a8.273 8.273 0 0 0 5.865 2.43 8.265 8.265 0 0 0 5.865-2.43 8.292 8.292 0 0 0 0-11.728l-21.23-21.229h175.156v80.726H51.974v-178.04h310.739v80.726H187.557l21.229-21.229a8.293 8.293 0 0 0-.001-11.728zm74.308 271.817H166.981v-45.339h116.112v45.339zm150.393-80.173c0 10.061-8.185 18.246-18.246 18.246H34.834c-10.061 0-18.246-8.185-18.246-18.246v-9.4h416.898v9.4zm61.927-35.387c0 5.183-4.217 9.4-9.4 9.4H388.7c-5.183 0-9.4-4.217-9.4-9.4v-18.246h116.112v18.246zm0-34.833H379.3v-71.879h51.303l-21.229 21.229a8.292 8.292 0 0 0 0 11.728c1.62 1.619 3.743 2.43 5.865 2.43s4.245-.809 5.865-2.43l35.387-35.387a8.292 8.292 0 0 0 0-11.728l-35.387-35.387a8.295 8.295 0 0 0-11.73 11.728l21.228 21.229H379.3v-89.572h116.112V291.94zm0-194.627H379.3V79.067c0-5.183 4.216-9.4 9.4-9.4h97.313c5.183 0 9.4 4.217 9.4 9.4v18.246z" fill="#2c2c2c"/></svg>