<svg viewBox="0 0 512 512" xmlns="http://www.w3.org/2000/svg"><g fill="#fff"><path d="M398.905 96.168h-285.81c-22.684 0-41.139 18.455-41.139 41.139v177.387c0 22.684 18.455 41.139 41.139 41.139h105.759l-9.859 49.865h-31.964c-7.18 0-13 5.82-13 13s5.82 13 13 13h157.938c7.18 0 13-5.82 13-13s-5.82-13-13-13h-31.964l-9.859-49.865h105.759c22.684 0 41.139-18.455 41.139-41.139V137.307c-.001-22.684-18.455-41.139-41.139-41.139zM276.501 405.697h-41.003l9.859-49.865h21.284l9.86 49.865zm137.542-91.004c0 8.348-6.792 15.139-15.139 15.139H113.095c-8.348 0-15.139-6.791-15.139-15.139V137.307c0-8.348 6.791-15.139 15.139-15.139h285.81c8.348 0 15.139 6.791 15.139 15.139v177.386z"/><path d="M204.207 162.6c-5.077-5.077-13.308-5.077-18.385 0l-53.21 53.21c-5.073 5.074-5.076 13.309 0 18.385l53.21 53.21c5.077 5.077 13.308 5.077 18.385 0 5.077-5.077 5.077-13.308 0-18.385l-44.018-44.018 44.018-44.018c5.076-5.076 5.076-13.307 0-18.384zm121.971 0c-5.077-5.077-13.308-5.077-18.385 0-5.077 5.077-5.077 13.308 0 18.385l44.018 44.018-44.018 44.018c-5.077 5.077-5.077 13.308 0 18.385 5.086 5.086 13.317 5.068 18.385 0l53.21-53.21c5.073-5.074 5.076-13.309 0-18.385l-53.21-53.211zm-33.461-2.149c-6.263-3.508-14.186-1.275-17.695 4.989l-60.729 108.415c-3.509 6.264-1.275 14.186 4.989 17.695 6.269 3.511 14.189 1.271 17.695-4.989l60.729-108.415c3.509-6.264 1.275-14.187-4.989-17.695z"/></g></svg>