<svg height="64" viewBox="0 0 64 64" width="64" xmlns="http://www.w3.org/2000/svg"><path d="M62.848 16.853h-.057c-1.094.007-1.263-.946-1.282-1.386V8.558c0-.736-.599-1.334-1.334-1.334H40.423c-4.957 0-6.805 1.836-7.264 2.414l-.126.174-.001.002-.391.536h-.001c-.524.721-.981.413-1.201.178l-.748-.933-.369-.445c-.622-.653-2.242-1.927-5.452-1.927H3.827c-.737 0-1.335.598-1.335 1.334v6.822c0 1.193-.648 1.434-1.046 1.473h-.297c-.324.019-1.077.208-1.077 1.595v32.505c0 .798.647 1.444 1.444 1.444h19.205c6.127 0 8.797 2.312 9.598 3.197l.457.566h.001s1.225 1.385 2.516 0l.269-.315v.003l.003-.003.341-.4c.01-.012.093-.104.211-.226 1.024-.995 3.579-2.822 8.575-2.822h19.792c.798 0 1.443-.646 1.443-1.444v-32.82c.001-1.174-.852-1.273-1.079-1.279zm-4.315 29c0 .64-.535 1.159-1.201 1.159H41.049c-5.795 0-7.899 2.616-7.899 2.616l-.267.358-.125.175h-.001c-.553.75-1.365.006-1.369 0l-.375-.468c-.278-.333-2.407-2.682-7.558-2.682H6.665c-.663 0-1.198-.52-1.198-1.159v-34.64c0-.64.536-1.157 1.198-1.157h13.034c9.696 0 10.614 5.507 10.677 7.106v24.092c0 1.751.834 2.078 1.305 2.126h.701c.479-.048 1.242-.333 1.242-1.697v-24.83h-.009c.074-2.003.854-6.797 6.686-6.797h17.031c.666 0 1.201.517 1.201 1.157v34.641z" fill="#40589c"/></svg>